<?xml version="1.0" standalone="no"?>
<!DOCTYPE svg PUBLIC "-//W3C//DTD SVG 20010904//EN"
 "http://www.w3.org/TR/2001/REC-SVG-20010904/DTD/svg10.dtd">
<svg version="1.0" xmlns="http://www.w3.org/2000/svg"
 width="312.000000pt" height="295.000000pt" viewBox="0 0 312.000000 295.000000"
 preserveAspectRatio="xMidYMid meet">

<g transform="translate(0.000000,295.000000) scale(0.100000,-0.100000)"
fill="#000000" stroke="none">
<path d="M1639 2531 c-16 -6 -86 -81 -75 -81 3 0 -2 -8 -11 -18 -10 -11 -21
-17 -25 -15 -6 3 -108 -73 -108 -81 0 -2 16 1 35 7 19 6 35 17 35 24 0 8 8 13
18 11 9 -1 39 13 66 31 37 26 45 36 35 43 -11 8 -10 9 2 5 9 -3 20 -2 25 2 5
4 28 14 52 21 23 7 42 17 42 22 0 4 -2 8 -4 8 -2 0 -19 6 -37 14 -19 7 -41 11
-50 7z"/>
<path d="M1412 2437 c-12 -13 -19 -27 -15 -32 5 -4 3 -5 -4 -2 -6 4 -28 -13
-50 -40 -38 -47 -39 -49 -21 -66 18 -17 20 -17 43 0 25 18 34 53 14 53 -23 0
3 18 35 24 40 8 51 28 33 62 l-13 25 -22 -24z"/>
<path d="M1264 2367 c-12 -7 -36 -25 -54 -40 -27 -23 -31 -30 -19 -38 21 -13
66 -11 72 4 3 6 12 29 21 50 17 39 14 44 -20 24z"/>
<path d="M1172 2258 c-8 -18 -11 -19 -11 -5 -1 25 -21 21 -58 -12 -27 -24 -33
-36 -33 -70 0 -22 4 -41 10 -41 17 0 92 78 85 89 -3 6 0 9 8 5 8 -3 27 6 43
20 22 19 25 25 12 26 -9 0 -23 2 -30 5 -9 4 -19 -4 -26 -17z"/>
<path d="M1972 2226 c1 -14 5 -23 9 -20 7 4 0 44 -7 44 -2 0 -3 -11 -2 -24z"/>
<path d="M1007 2160 c-19 -16 -40 -30 -46 -30 -7 0 -9 -4 -6 -10 3 -5 20 -10
36 -10 17 0 28 4 25 8 -3 5 5 8 17 8 18 -1 23 5 25 32 4 40 -8 40 -51 2z"/>
<path d="M2112 2156 c-41 -29 -42 -31 -21 -39 31 -11 47 -3 59 29 16 41 9 43
-38 10z"/>
<path d="M1986 2163 c-4 -10 -4 -14 0 -10 4 4 12 -1 19 -9 11 -15 12 -15 12 0
0 9 -4 16 -9 16 -5 0 -6 5 -3 10 3 6 2 10 -3 10 -6 0 -13 -8 -16 -17z"/>
<path d="M926 2101 c2 -2 -3 -9 -11 -15 -13 -10 -25 -100 -14 -110 2 -2 37 26
78 63 l74 67 -66 0 c-36 -1 -63 -3 -61 -5z"/>
<path d="M1833 2094 c4 -11 11 -40 17 -65 l12 -47 49 16 c27 9 49 19 49 22 0
6 -102 80 -124 89 -4 2 -6 -5 -3 -15z"/>
<path d="M2057 2049 c3 -35 9 -67 12 -72 4 -4 20 20 36 53 16 33 26 62 23 65
-3 3 -21 8 -41 12 l-35 5 5 -63z"/>
<path d="M2017 2050 c-17 -29 -17 -29 14 -62 19 -21 29 -26 25 -15 -3 10 -6
39 -6 63 0 51 -9 55 -33 14z"/>
<path d="M2129 2048 c-8 -18 -12 -39 -11 -46 2 -7 -3 -11 -10 -10 -7 2 -12 -3
-10 -9 1 -7 -2 -13 -8 -13 -5 0 -10 -4 -10 -10 0 -5 23 -10 51 -10 43 0 50 3
46 18 -8 27 -20 76 -23 90 -5 25 -11 23 -25 -10z"/>
<path d="M2173 2038 c3 -9 9 -33 13 -52 4 -26 11 -36 25 -36 26 0 24 8 -12 60
-17 25 -29 37 -26 28z"/>
<path d="M1920 1991 c-25 -8 -47 -16 -49 -18 -4 -2 39 -133 44 -133 5 0 58
161 54 164 -2 2 -24 -4 -49 -13z"/>
<path d="M1956 1922 c-14 -42 -26 -81 -26 -85 0 -5 24 -6 53 -2 54 7 120 34
197 79 l45 27 -85 -3 -85 -3 -28 32 c-16 18 -33 33 -37 33 -5 0 -20 -35 -34
-78z"/>
<path d="M808 1956 c-19 -14 -48 -80 -48 -108 0 -10 -4 -17 -9 -14 -4 3 -16
-12 -26 -34 -10 -22 -20 -38 -22 -36 -3 2 1 15 8 28 15 28 21 70 8 62 -5 -3
-6 -10 -3 -16 5 -7 2 -8 -5 -4 -7 5 -10 14 -7 21 2 7 -7 18 -20 24 -19 8 -23
8 -18 0 4 -7 8 -21 8 -33 1 -11 7 -20 12 -19 6 1 11 -4 11 -12 0 -8 -5 -12
-10 -8 -11 7 1 -36 15 -54 6 -7 27 -13 48 -13 28 0 39 5 48 23 13 28 26 77 25
100 0 10 2 15 5 13 3 -3 11 2 19 12 9 11 12 11 7 2 -4 -8 4 -5 17 8 19 17 21
26 13 39 -14 23 -57 33 -76 19z"/>
<path d="M1840 1963 c-8 -2 -22 -7 -30 -10 -8 -4 -18 -7 -22 -7 -18 -2 -6 -19
36 -51 24 -18 47 -31 50 -28 6 6 10 -12 7 -34 -1 -7 2 -13 8 -13 5 0 8 10 7
23 -3 21 -36 128 -39 126 -1 0 -9 -3 -17 -6z"/>
<path d="M1323 1902 c-8 -14 -7 -18 7 -18 10 0 17 6 16 13 -3 21 -11 23 -23 5z"/>
<path d="M1722 1881 c-24 -42 -17 -60 17 -41 12 6 43 8 76 4 30 -4 55 -4 55
-1 0 9 -99 77 -113 77 -7 0 -23 -18 -35 -39z"/>
<path d="M1368 1817 c16 -15 24 -17 38 -8 15 8 16 11 4 12 -8 1 -18 1 -22 0
-5 0 -8 3 -8 7 0 5 -7 9 -16 9 -12 0 -12 -4 4 -20z"/>
<path d="M1615 1830 c-3 -5 0 -10 9 -10 8 0 16 -6 19 -12 2 -7 8 -10 12 -6 8
8 -12 38 -26 38 -4 0 -11 -4 -14 -10z"/>
<path d="M1340 1811 c0 -5 5 -13 11 -16 6 -5 3 -13 -10 -22 -12 -8 -21 -22
-21 -31 0 -12 -2 -14 -8 -4 -6 9 -17 3 -40 -23 -18 -19 -32 -36 -32 -38 0 -2
-20 -24 -44 -49 -24 -25 -48 -53 -54 -63 -9 -17 -11 -18 -27 -2 -9 9 -21 17
-27 17 -6 0 -9 3 -6 6 4 3 16 0 28 -6 19 -10 21 -9 16 7 -3 10 -10 47 -16 83
-18 108 -21 111 -40 55 -12 -34 -22 -50 -34 -49 -9 1 -16 -5 -16 -13 0 -8 5
-11 10 -8 6 3 10 1 10 -5 0 -7 -7 -10 -15 -6 -22 8 -18 -3 8 -26 12 -11 17
-17 10 -13 -15 7 -93 -61 -93 -81 0 -20 69 -79 90 -78 12 1 16 -4 13 -17 -3
-11 -11 -19 -17 -19 -7 0 -27 -16 -46 -35 -19 -19 -30 -35 -25 -35 30 0 186
33 216 46 28 12 42 28 60 67 13 28 24 53 25 56 3 18 17 40 24 36 6 -4 33 20
105 94 6 6 36 34 69 63 l58 52 -26 21 c-30 24 -64 29 -101 15 -16 -6 -24 -6
-20 0 3 5 -4 14 -15 20 -12 7 -20 7 -20 1z m-303 -298 c-3 -10 -5 -4 -5 12 0
17 2 24 5 18 2 -7 2 -21 0 -30z"/>
<path d="M877 1783 c-10 -15 -37 -93 -33 -93 18 0 66 25 66 33 -1 26 -26 71
-33 60z"/>
<path d="M549 1778 c-5 -21 -6 -59 -1 -62 4 -2 8 11 8 30 0 27 -3 44 -7 32z"/>
<path d="M2085 1771 c-3 -5 -2 -12 3 -15 5 -3 9 1 9 9 0 17 -3 19 -12 6z"/>
<path d="M1034 1754 c-10 -8 -14 -13 -7 -10 6 4 14 2 18 -4 8 -13 25 -3 25 16
0 18 -11 18 -36 -2z"/>
<path d="M2310 1747 c1 -6 6 -25 13 -41 l13 -29 29 26 c28 24 29 26 10 32 -11
4 -30 11 -42 16 -17 6 -23 5 -23 -4z"/>
<path d="M1000 1729 c0 -4 6 -9 13 -12 6 -2 9 -7 6 -11 -4 -4 -13 0 -22 8 -12
12 -18 13 -31 3 -16 -12 -15 -15 8 -40 29 -31 38 -34 34 -9 -2 11 3 17 15 17
24 0 42 31 25 41 -17 11 -48 13 -48 3z m-5 -28 c9 -16 -9 -20 -23 -5 -10 12
-10 14 2 14 8 0 17 -4 21 -9z"/>
<path d="M1215 1730 c-3 -6 1 -7 9 -4 18 7 21 14 7 14 -6 0 -13 -4 -16 -10z"/>
<path d="M2106 1684 c-10 -31 -16 -57 -14 -59 5 -5 108 42 108 49 0 2 -17 18
-38 35 l-39 30 -17 -55z"/>
<path d="M703 1714 c-3 -8 -2 -24 3 -35 9 -19 11 -18 44 16 l34 35 -37 0 c-25
0 -40 -5 -44 -16z"/>
<path d="M1580 1714 c-25 -8 -58 -26 -75 -39 -26 -22 -27 -25 -10 -25 17 0 17
-2 -5 -13 -21 -11 -55 -79 -59 -120 -1 -4 26 23 59 60 51 57 58 69 43 75 -15
5 -14 7 5 7 12 1 22 6 22 12 0 5 4 8 9 5 13 -8 112 35 105 45 -7 12 -41 10
-94 -7z"/>
<path d="M656 1694 c-15 -16 -37 -41 -48 -57 l-20 -28 29 6 28 5 -30 -11 c-16
-7 -32 -13 -34 -15 -6 -6 83 -83 95 -84 16 0 30 113 15 118 -9 3 -9 8 -1 17 7
8 8 25 3 45 l-8 32 -29 -28z"/>
<path d="M878 1688 c-16 -5 -28 -14 -28 -19 0 -9 70 -119 75 -119 6 0 -8 135
-14 141 -3 4 -18 2 -33 -3z"/>
<path d="M1843 1629 l-21 -71 41 6 c23 4 46 11 51 16 8 8 -32 120 -44 120 -3
0 -15 -32 -27 -71z"/>
<path d="M1980 1648 c-16 -29 -30 -60 -30 -68 0 -8 -9 -21 -20 -27 -16 -11
-18 -10 -14 1 5 13 -2 13 -46 1 -29 -8 -53 -15 -55 -17 -1 -2 -17 -31 -35 -66
l-33 -62 19 -35 c17 -32 34 -45 34 -27 0 4 10 18 21 32 20 24 20 24 0 -12
l-22 -37 28 -4 28 -4 -28 -2 c-16 0 -26 -5 -23 -10 4 -5 -3 -7 -14 -4 -11 3
-20 9 -20 13 0 4 -39 17 -87 29 -83 21 -88 21 -100 5 -7 -10 -13 -27 -14 -38
0 -12 -2 -30 -4 -41 -14 -70 -14 -69 42 -71 29 0 52 2 51 5 -2 19 4 28 17 28
8 0 12 -4 9 -9 -7 -10 17 -10 34 1 9 5 32 -9 70 -44 130 -119 267 -230 241
-195 -14 19 -67 92 -118 162 l-93 127 -26 -15 -27 -16 25 20 c14 12 47 24 75
28 47 7 48 8 20 15 -25 6 -22 7 21 8 44 1 56 6 102 45 31 27 47 46 39 49 -7 3
-5 6 6 7 33 4 60 14 135 47 l56 24 -30 25 c-29 25 -29 25 -1 8 32 -19 32 -18
15 72 -13 72 -10 72 -102 28 -53 -26 -88 -32 -69 -13 7 7 4 22 -11 50 -11 21
-24 39 -28 39 -4 0 -21 -24 -38 -52z m170 -85 c0 -7 -39 17 -46 28 -3 6 5 3
20 -6 14 -10 26 -19 26 -22z m-275 -103 c-9 -16 -18 -30 -21 -30 -2 0 2 14 11
30 9 17 18 30 21 30 2 0 -2 -13 -11 -30z m166 -7 c13 -16 12 -17 -3 -4 -17 13
-22 21 -14 21 2 0 10 -8 17 -17z m-143 -40 c-27 -2 -69 -2 -95 0 -27 2 -5 3
47 3 52 0 74 -1 48 -3z m110 0 c-10 -2 -28 -2 -40 0 -13 2 -5 4 17 4 22 1 32
-1 23 -4z m-393 -83 c9 -16 13 -30 11 -30 -3 0 -12 14 -21 30 -9 17 -13 30
-11 30 3 0 12 -13 21 -30z m35 -60 c6 -11 8 -20 6 -20 -3 0 -10 9 -16 20 -6
11 -8 20 -6 20 3 0 10 -9 16 -20z"/>
<path d="M2230 1643 c1 -10 6 -45 13 -77 l12 -59 19 41 c11 23 21 40 23 38 3
-2 -3 -18 -12 -36 -9 -18 -15 -34 -12 -36 2 -2 22 13 44 34 34 31 40 42 36 65
-8 39 -20 42 -38 10 -15 -27 -15 -19 0 20 6 15 1 17 -39 17 -37 0 -46 -3 -46
-17z"/>
<path d="M828 1635 c-7 -12 -31 -98 -28 -105 1 -3 9 -4 18 -3 10 1 11 0 5 -3
-18 -8 -16 -25 7 -54 l20 -25 0 25 c0 14 4 32 9 39 6 10 8 0 4 -29 -5 -35 -4
-42 8 -35 11 7 12 6 2 -7 -7 -8 -10 -18 -6 -21 8 -9 -10 -9 -32 -1 -10 4 -13
9 -6 13 7 4 3 18 -9 39 -23 38 -36 35 -42 -8 -3 -20 0 -30 9 -30 7 0 13 -4 13
-10 0 -5 24 -22 53 -37 95 -50 88 -54 85 40 -3 92 -16 111 -71 109 -17 0 -27
2 -21 6 6 4 14 16 18 27 4 11 4 16 -1 12 -4 -5 -12 9 -18 30 -6 21 -13 34 -17
28z"/>
<path d="M1598 1572 c-16 -10 -28 -20 -28 -23 0 -3 20 -10 45 -16 36 -8 45 -8
45 3 0 8 -4 14 -10 14 -5 0 -9 3 -9 8 6 35 -4 38 -43 14z"/>
<path d="M1482 1515 c-29 -14 -51 -28 -49 -32 3 -5 -1 -14 -9 -21 -9 -8 -14
-9 -14 -2 0 6 -4 9 -9 6 -4 -3 -6 5 -4 17 3 14 -3 26 -15 34 -18 11 -21 7 -36
-46 -20 -73 -20 -78 4 -56 11 10 18 21 15 25 -2 4 2 7 10 7 8 0 1 -16 -20 -40
-25 -29 -32 -44 -25 -56 16 -30 100 -106 100 -91 0 12 2 12 8 2 11 -16 106 82
127 130 8 18 14 27 15 20 0 -7 4 -11 9 -8 5 4 12 0 14 -6 4 -10 6 -10 6 0 1 7
6 10 13 6 7 -4 8 -3 4 5 -4 6 -12 9 -17 6 -14 -9 -11 11 4 24 8 6 18 7 22 3 5
-4 5 -2 1 5 -4 7 1 24 10 38 18 28 20 26 -51 44 -53 14 -52 14 -113 -14z m75
-17 c-3 -7 -5 -2 -5 12 0 14 2 19 5 13 2 -7 2 -19 0 -25z m10 -50 c-3 -8 -6
-5 -6 6 -1 11 2 17 5 13 3 -3 4 -12 1 -19z m-140 -150 c-3 -8 -6 -5 -6 6 -1
11 2 17 5 13 3 -3 4 -12 1 -19z"/>
<path d="M1788 1535 c-3 -3 -18 -8 -34 -11 -66 -11 -66 -11 -41 -55 12 -21 24
-39 27 -39 6 0 61 103 57 107 -2 2 -6 1 -9 -2z"/>
<path d="M1697 1419 c7 -7 15 -10 18 -7 3 3 -2 9 -12 12 -14 6 -15 5 -6 -5z"/>
<path d="M1665 1393 c-54 -8 -46 -19 26 -36 40 -10 74 -15 77 -13 3 3 -3 17
-12 31 -16 25 -26 27 -91 18z"/>
<path d="M2035 1275 c-16 -55 -29 -111 -28 -125 0 -14 17 -63 36 -110 l36 -85
-1 90 c0 50 -3 144 -7 210 l-6 120 -30 -100z"/>
<path d="M1882 1290 c-18 -4 -35 -10 -38 -13 -3 -2 19 -22 48 -43 29 -22 61
-45 72 -53 18 -13 19 -12 12 15 -28 115 -24 111 -94 94z"/>
<path d="M500 220 c0 -5 7 -10 16 -10 8 0 12 5 9 10 -3 6 -10 10 -16 10 -5 0
-9 -4 -9 -10z"/>
<path d="M1560 220 c0 -5 7 -10 16 -10 8 0 12 5 9 10 -3 6 -10 10 -16 10 -5 0
-9 -4 -9 -10z"/>
<path d="M505 190 c-3 -5 -1 -10 4 -10 6 0 11 5 11 10 0 6 -2 10 -4 10 -3 0
-8 -4 -11 -10z"/>
</g>
</svg>
